<svg xmlns="http://www.w3.org/2000/svg" fill="none" viewBox="0 0 100 100"><g clip-path="url(#a)"><path fill="#ea4335" d="M63.453 32.161h3.052l8.693-8.693.428-3.689C59.45 5.502 34.757 7.041 20.48 23.216a39 39 0 0 0-8.416 15.623 4.73 4.73 0 0 1 3.051-.185l17.383-2.867s.884-1.463 1.341-1.37c7.734-8.493 20.749-9.482 29.677-2.256z"/><path fill="#4285f4" d="M87.58 38.839a39.16 39.16 0 0 0-11.803-19.03L63.579 32.005a21.68 21.68 0 0 1 7.96 17.203v2.167c5.998 0 10.856 4.862 10.856 10.856 0 5.998-4.862 10.856-10.856 10.856H49.822l-2.167 2.197v13.023l2.167 2.167h21.717a28.25 28.25 0 0 0 27.19-19.86c3.689-11.891-.838-24.802-11.149-31.776"/><path fill="#34a853" d="M28.076 90.354h21.716V72.97H28.076c-1.547 0-3.077-.331-4.485-.977l-3.052.944-8.752 8.693-.763 3.052a28.1 28.1 0 0 0 17.052 5.67"/><path fill="#fbbc05" d="M28.076 33.96A28.24 28.24 0 0 0 1.48 53.185a28.245 28.245 0 0 0 9.548 31.4L23.624 71.99c-5.466-2.469-7.893-8.899-5.424-14.365 2.469-5.465 8.899-7.892 14.365-5.424a10.9 10.9 0 0 1 5.424 5.424L50.585 45.03a28.23 28.23 0 0 0-22.51-11.07"/></g><defs><clipPath id="a"><path fill="#fff" d="M0 10h100v80.475H0z"/></clipPath></defs></svg>