<svg xmlns="http://www.w3.org/2000/svg" fill="none" viewBox="0 0 100 100"><g fill="#00acd7" clip-path="url(#a)"><path d="M7.547 42.312c-.195 0-.243-.097-.146-.243l1.022-1.315c.098-.146.341-.243.536-.243H26.34c.194 0 .243.146.146.292l-.828 1.266c-.097.146-.34.292-.487.292zm-7.352 4.48c-.195 0-.243-.098-.146-.244l1.022-1.314c.098-.146.341-.244.536-.244h22.202c.195 0 .292.146.243.292l-.39 1.169c-.048.195-.243.292-.437.292zm11.783 4.48c-.195 0-.244-.147-.146-.293l.681-1.217c.098-.146.292-.292.487-.292h9.738c.195 0 .292.146.292.34l-.098 1.169c0 .195-.194.34-.34.34zm50.538-9.836c-3.067.779-5.16 1.363-8.18 2.142-.73.195-.779.244-1.411-.487-.73-.827-1.266-1.363-2.289-1.85-3.067-1.51-6.037-1.07-8.812.73-3.311 2.143-5.015 5.308-4.967 9.251.05 3.895 2.727 7.109 6.573 7.645 3.311.438 6.086-.73 8.277-3.214.439-.535.828-1.12 1.315-1.801h-9.397c-1.022 0-1.266-.633-.925-1.461.633-1.51 1.801-4.041 2.483-5.307.146-.292.487-.78 1.217-.78h17.723c-.098 1.316-.098 2.63-.292 3.945-.536 3.505-1.85 6.719-3.993 9.543-3.505 4.625-8.082 7.498-13.876 8.277-4.771.632-9.202-.293-13.097-3.214-3.603-2.726-5.648-6.33-6.184-10.809-.632-5.307.926-10.078 4.139-14.265 3.457-4.528 8.034-7.401 13.633-8.423 4.576-.828 8.958-.293 12.902 2.385 2.58 1.704 4.43 4.041 5.648 6.865.292.439.097.682-.487.828"/><path d="M78.632 68.36c-4.43-.097-8.472-1.362-11.88-4.284-2.872-2.483-4.674-5.648-5.258-9.397-.877-5.501.633-10.37 3.944-14.704 3.554-4.674 7.838-7.108 13.632-8.13 4.966-.877 9.64-.39 13.876 2.483 3.847 2.629 6.233 6.183 6.865 10.857.828 6.573-1.07 11.929-5.599 16.505-3.213 3.263-7.157 5.308-11.685 6.233-1.314.243-2.63.292-3.895.438M90.22 48.69c-.049-.632-.049-1.12-.146-1.606-.877-4.82-5.307-7.547-9.933-6.476-4.528 1.023-7.449 3.896-8.52 8.472-.876 3.798.974 7.644 4.48 9.202 2.677 1.169 5.355 1.023 7.936-.292 3.846-1.996 5.94-5.112 6.183-9.3"/></g><defs><clipPath id="a"><path fill="#fff" d="M0 0h100v100H0z"/></clipPath></defs></svg>