<svg xmlns="http://www.w3.org/2000/svg" fill="none" viewBox="0 0 100 100"><g clip-path="url(#a)"><path fill="#fff" stroke="#fff" stroke-miterlimit="10" stroke-width="5" d="M91.252 23.498c-.572-1.83-1.944-3.317-3.66-4.231L52.716 2.57c-.915-.457-1.945-.572-2.86-.572s-1.943 0-2.858.229L12.12 19.037c-1.716.8-2.974 2.287-3.431 4.231L.111 60.892A7.22 7.22 0 0 0 1.37 66.38L25.5 96.227c1.371 1.372 3.315 2.287 5.26 2.402h38.423c2.058.228 4.002-.687 5.26-2.402L98.57 66.381c1.143-1.601 1.601-3.545 1.372-5.49z"/><path fill="#326de6" d="M91.252 23.498c-.572-1.83-1.944-3.317-3.66-4.231L52.716 2.57c-.915-.457-1.945-.572-2.86-.572s-1.943 0-2.858.229L12.12 19.037c-1.716.8-2.974 2.287-3.431 4.231L.111 60.892A7.22 7.22 0 0 0 1.37 66.38L25.5 96.227c1.371 1.372 3.315 2.287 5.26 2.402h38.423c2.058.228 4.002-.687 5.26-2.402L98.57 66.381c1.143-1.601 1.601-3.545 1.372-5.49z"/><path fill="#fff" d="M85.877 59.405c-.114 0-.228 0-.228-.114 0-.115-.23-.115-.458-.115-.457-.114-.915-.114-1.372-.114-.229 0-.458 0-.686-.114h-.115a23 23 0 0 1-3.888-.687 1.38 1.38 0 0 1-.8-.8l-.915-.229c.457-3.316.229-6.747-.457-10.063a31 31 0 0 0-4.003-9.377l.686-.686v-.114c0-.343.115-.8.343-1.03 1.03-.915 2.059-1.6 3.202-2.287l.686-.343c.458-.229.8-.457 1.258-.686.115-.114.229-.114.343-.229.115-.114 0-.114 0-.228 1.03-.8 1.258-2.173.458-3.202-.343-.458-1.03-.8-1.601-.8-.572 0-1.144.228-1.601.571l-.114.114c-.115.115-.23.23-.344.23-.343.342-.686.685-.914 1.028-.115.229-.343.343-.458.458-.8.915-1.83 1.83-2.859 2.515-.228.115-.457.23-.686.23-.114 0-.343 0-.457-.115h-.115l-.914.572c-.915-.915-1.944-1.83-2.86-2.745-4.23-3.316-9.49-5.375-14.865-5.946l-.115-.915v.114c-.343-.228-.457-.571-.572-.915 0-1.258 0-2.515.23-3.888v-.114c0-.229.114-.457.114-.686.114-.457.114-.915.228-1.372v-.686c.115-1.144-.8-2.288-1.944-2.402-.686-.114-1.372.229-1.944.8a2.26 2.26 0 0 0-.686 1.602v.571c0 .458.114.915.229 1.373.114.228.114.457.114.686v.114c.229 1.258.229 2.516.229 3.888-.114.343-.229.686-.572.915v.229l-.114.914c-1.258.115-2.516.343-3.888.572-5.375 1.144-10.292 4.003-14.066 8.005l-.686-.457h-.114c-.115 0-.229.114-.458.114s-.457-.114-.686-.229c-1.03-.8-2.058-1.715-2.859-2.63-.114-.229-.343-.343-.457-.457-.343-.343-.572-.687-.915-1.03-.114-.114-.229-.114-.343-.228l-.114-.115c-.458-.343-1.03-.571-1.601-.571-.686 0-1.258.228-1.601.8-.686 1.03-.458 2.402.457 3.202.114 0 .114.114.114.114s.23.23.343.23c.344.228.801.456 1.258.685l.686.343c1.144.686 2.288 1.373 3.202 2.287.23.23.458.686.344 1.03v-.115l.686.686c-.115.23-.23.343-.343.572-3.545 5.604-5.032 12.236-4.003 18.754l-.915.229c0 .114-.114.114-.114.114-.114.343-.457.572-.8.8a21 21 0 0 1-3.889.687c-.228 0-.457 0-.686.114-.457 0-.915.115-1.372.115-.114 0-.229.114-.457.114-.115 0-.115 0-.23.114-1.257.229-2.057 1.373-1.829 2.63.229 1.03 1.258 1.716 2.287 1.601.23 0 .343 0 .572-.114.114 0 .114 0 .114-.114 0-.115.344 0 .458 0 .457-.115.915-.343 1.258-.458.229-.114.457-.228.686-.228h.114c1.258-.458 2.402-.8 3.774-1.03h.114c.343 0 .686.115.915.343.114 0 .114.115.114.115l1.03-.114c1.715 5.26 4.917 9.948 9.377 13.379 1.029.8 1.944 1.487 3.087 2.058l-.571.8c0 .115.114.115.114.115.229.343.229.8.114 1.144-.457 1.143-1.143 2.287-1.83 3.316v.114c-.114.229-.228.343-.457.572s-.457.686-.8 1.144c-.115.114-.115.228-.229.343 0 0 0 .114-.114.114-.572 1.144-.115 2.516.914 3.088.23.114.572.228.801.228.915 0 1.715-.571 2.173-1.372 0 0 0-.114.114-.114 0-.115.114-.229.229-.343.114-.458.343-.8.457-1.258l.229-.686c.343-1.258.915-2.402 1.486-3.545.23-.343.572-.572.915-.686.115 0 .115 0 .115-.115l.457-.915c3.202 1.258 6.518 1.83 9.949 1.83 2.058 0 4.117-.229 6.175-.8 1.258-.23 2.516-.687 3.66-1.03l.457.8c.114 0 .114 0 .114.115.343.115.686.343.915.686.572 1.144 1.144 2.287 1.487 3.545v.115l.228.686c.115.457.23.915.458 1.258.114.114.114.228.229.343 0 0 0 .114.114.114.457.8 1.258 1.372 2.173 1.372.343 0 .571-.114.914-.228.458-.23.915-.686 1.03-1.258s.114-1.144-.115-1.716c0-.114-.114-.114-.114-.114 0-.114-.114-.229-.229-.343-.228-.457-.457-.8-.8-1.144-.115-.228-.229-.343-.458-.571v-.229c-.8-1.03-1.372-2.173-1.83-3.316-.114-.343-.114-.8.115-1.144 0-.114.114-.114.114-.114l-.343-.915c5.832-3.545 10.292-9.034 12.35-15.552l.915.114c.115 0 .115-.114.115-.114.228-.229.572-.343.914-.343h.115c1.258.228 2.516.572 3.66 1.029h.114c.228.114.457.229.686.229.457.228.8.457 1.258.571.114 0 .228.115.457.115.114 0 .114 0 .229.114.228.114.343.114.572.114 1.029 0 1.944-.686 2.287-1.6-.115-1.258-1.03-2.173-2.059-2.402M52.83 55.86l-3.088 1.487-3.087-1.487-.8-3.316 2.172-2.745h3.43l2.173 2.745zm18.64-7.433c.571 2.401.686 4.803.457 7.204l-10.864-3.087c-1.029-.229-1.6-1.258-1.372-2.287.114-.343.229-.572.458-.8l8.576-7.777c1.258 2.059 2.173 4.346 2.745 6.747m-6.176-10.978-9.377 6.633c-.8.457-1.944.343-2.515-.458-.23-.229-.344-.457-.344-.8l-.686-11.55c5.032.572 9.492 2.744 12.922 6.175m-20.698-5.832 2.287-.457-.571 11.435c0 1.03-.915 1.83-1.944 1.83-.343 0-.572-.115-.915-.23L33.96 37.45c2.974-2.859 6.633-4.917 10.635-5.832M30.644 41.68l8.462 7.547c.8.687.915 1.83.229 2.63-.229.344-.457.458-.915.572l-11.092 3.202c-.343-4.803.8-9.72 3.316-13.95M28.7 61.006l11.321-1.944c.915 0 1.83.572 1.944 1.487.114.343.114.8-.114 1.143l-4.346 10.52c-4.002-2.63-7.204-6.632-8.805-11.206m25.958 14.18c-1.6.343-3.202.572-4.917.572-2.401 0-4.917-.458-7.204-1.144l5.603-10.177c.572-.686 1.487-.915 2.287-.458.343.229.572.458.915.8l5.49 9.95c-.687.114-1.373.228-2.174.457m13.952-9.949a21.8 21.8 0 0 1-6.862 6.861l-4.46-10.749c-.228-.915.23-1.83 1.03-2.173.343-.114.686-.228 1.029-.228l11.435 1.944c-.571 1.6-1.257 3.087-2.172 4.345"/></g><defs><clipPath id="a"><path fill="#fff" d="M0 0h100v100H0z"/></clipPath></defs></svg>