<?xml version="1.0" encoding="UTF-8"?>
<svg version="1.1" xmlns="http://www.w3.org/2000/svg" width="512" height="512">
<path d="M0 0 C1.18571877 -0.00538554 2.37143755 -0.01077108 3.5930872 -0.01631981 C6.85775339 -0.02808783 10.12208872 -0.02655818 13.38675737 -0.019153 C16.9178452 -0.01440132 20.44887956 -0.02694866 23.97994995 -0.03717041 C30.88683852 -0.05432386 37.79363597 -0.05520575 44.7005403 -0.04995751 C50.31616751 -0.04590867 55.93176787 -0.04736781 61.5473938 -0.05270576 C62.74831275 -0.0538284 62.74831275 -0.0538284 63.97349268 -0.05497371 C65.60015004 -0.05650525 67.22680738 -0.0580436 68.85346472 -0.05958868 C84.09056092 -0.07330083 99.32760571 -0.06788473 114.56470072 -0.05640347 C128.49272493 -0.04646903 142.42061633 -0.05941765 156.34862006 -0.08333766 C170.66625586 -0.10774075 184.98382984 -0.11733377 199.30148602 -0.11068493 C207.33328299 -0.10719584 215.36497782 -0.10940448 223.39675903 -0.12693596 C230.23275927 -0.14167294 237.06858538 -0.14227374 243.90458226 -0.12486505 C247.38945823 -0.11636553 250.87402333 -0.11417947 254.3588829 -0.1295166 C258.14303091 -0.14271443 261.92633724 -0.13118791 265.71044922 -0.11352539 C266.80287461 -0.1231304 267.89530001 -0.1327354 269.0208292 -0.14263147 C278.34086762 -0.05329946 286.39597865 2.21406826 293.32397461 8.68455505 C299.21026694 15.23155367 302.10175153 22.259651 302.11249352 31.09510422 C302.11599959 31.74736681 302.11950566 32.39962941 302.12311798 33.07165754 C302.1324125 35.25453765 302.1275138 37.43714983 302.12265015 39.62004089 C302.1263874 41.20201784 302.13098922 42.78399295 302.13638079 44.36596513 C302.14861705 48.71132843 302.14834958 53.05661477 302.14599204 57.40199137 C302.14558403 62.08924961 302.15662154 66.77648313 302.16610718 71.46372986 C302.18272176 80.64648015 302.18821694 89.82920476 302.18933193 99.01196882 C302.19028222 106.4764659 302.19439157 113.94095451 302.20073318 121.40544891 C302.21834712 142.5689586 302.22757186 163.732448 302.22607224 184.89596507 C302.22599232 186.03695172 302.22591241 187.17793837 302.22583008 188.35350037 C302.22574832 189.49588033 302.22566656 190.63826028 302.22558232 191.81525782 C302.22476945 210.32828745 302.24390684 228.84123572 302.27210681 247.35424182 C302.30083426 266.36355446 302.31464717 285.37282743 302.31291926 304.38216233 C302.31225529 315.05432206 302.31775047 325.7263965 302.33927536 336.39853668 C302.35748534 345.48537742 302.36183599 354.57209421 302.34825651 363.65894529 C302.34172587 368.29412254 302.34161317 372.92906198 302.35896301 377.56421661 C302.37469454 381.81074985 302.37182936 386.05685672 302.35439475 390.30337957 C302.35132502 391.83634433 302.35495626 393.36934092 302.3661149 394.90226814 C302.4411834 405.95006394 301.38664271 415.47462128 293.55834961 423.85643005 C286.74234139 429.98458423 279.62281669 432.64127148 270.45205688 432.62818909 C269.72822512 432.62989794 269.00439336 432.63160679 268.2586273 432.63336742 C265.84492335 432.63664899 263.43150039 432.62568081 261.01782227 432.61473083 C259.28296922 432.61416643 257.5481157 432.61448385 255.81326294 432.61561584 C251.11124688 432.61618922 246.40933304 432.60443727 241.70734072 432.59046793 C236.7906067 432.57795814 231.87387028 432.57678987 226.9571228 432.57441711 C217.64998383 432.56820308 208.3428919 432.55179328 199.03577363 432.53171813 C188.43850293 432.50935676 177.84122997 432.4983651 167.24394155 432.48832726 C145.44767632 432.46742701 123.65145343 432.4322525 101.85522461 432.38768005 C101.87617188 433.69962341 101.89711914 435.01156677 101.91870117 436.36326599 C101.99110431 441.23099349 102.03702574 446.0986734 102.07495117 450.96678162 C102.09506587 453.07363387 102.12236128 455.18043031 102.15698242 457.28709412 C102.20550629 460.31555452 102.22819477 463.34327684 102.24584961 466.37205505 C102.26649475 467.3138562 102.28713989 468.25565735 102.30841064 469.22599792 C102.31064224 475.73051713 102.31064224 475.73051713 100.06518555 478.97068787 C97.3893257 480.6864071 95.14768481 481.13296186 91.97338867 480.95701599 C89.40037474 480.26542211 88.17573379 479.26132769 86.21459961 477.46580505 C85.52205078 476.83247253 84.82950195 476.19914001 84.1159668 475.5466156 C79.96225473 471.57995514 75.89611546 467.53141774 71.85522461 463.45018005 C70.98510742 462.57555115 70.11499023 461.70092224 69.21850586 460.79978943 C67.09508911 458.66470556 64.97406083 456.527308 62.85522461 454.38768005 C58.96478828 455.96563921 56.37827093 458.62322386 53.50366211 461.5790863 C53.00355621 462.08439377 52.50345032 462.58970123 51.9881897 463.11032104 C50.39735518 464.7189109 48.81339377 466.33404825 47.23022461 467.95018005 C45.63904685 469.56898243 44.0464276 471.18629826 42.45083618 472.80075073 C41.45975363 473.80408433 40.47135653 474.81007914 39.4859314 475.81896973 C35.54249495 479.81996843 33.58752404 480.50129853 27.92553711 480.8134613 C24.71873268 480.1539487 23.79150889 479.04364742 21.85522461 476.38768005 C21.28979439 473.04825444 21.39054292 469.75041297 21.46459961 466.37205505 C21.4702594 465.40108887 21.47591919 464.43012268 21.48175049 463.42973328 C21.5041215 460.33187836 21.55431988 457.23518472 21.60522461 454.13768005 C21.62528864 452.03613427 21.64353958 449.93457034 21.65991211 447.83299255 C21.70398881 442.68410836 21.77302203 437.53609102 21.85522461 432.38768005 C20.88810547 432.40862732 19.92098633 432.42957458 18.92456055 432.45115662 C15.279208 432.52446854 11.63391814 432.56980471 7.98803711 432.60740662 C6.42086775 432.62731737 4.85377063 432.65445641 3.28686523 432.68943787 C-13.3212341 433.0504835 -25.43010239 429.6397782 -37.89477539 418.07518005 C-48.46250717 406.90927478 -50.60171283 394.62775681 -50.53245544 379.75074768 C-50.53663428 378.28223638 -50.5421148 376.81372831 -50.54877526 375.34522617 C-50.56317659 371.33196171 -50.55900187 367.31890355 -50.55160844 363.30562806 C-50.54686586 358.96877274 -50.55939626 354.63196135 -50.56962585 350.29512024 C-50.58679793 341.80739751 -50.58765716 333.31974886 -50.58241295 324.83201326 C-50.578367 317.93112637 -50.57981986 311.03026132 -50.58516121 304.12937546 C-50.58590963 303.14616643 -50.58665805 302.1629574 -50.58742915 301.14995416 C-50.58896068 299.15238627 -50.59049902 297.15481839 -50.59204412 295.15725051 C-50.60576345 276.43591669 -50.6003355 257.7146247 -50.58885891 238.99329184 C-50.57892746 221.87863072 -50.59186669 204.76407772 -50.6157931 187.64943327 C-50.64019523 170.06153449 -50.64978921 152.47368605 -50.64314038 134.88577068 C-50.63965059 125.01732735 -50.64186432 115.14896716 -50.6593914 105.28053665 C-50.6741273 96.8796826 -50.67473068 88.47897024 -50.65732049 80.07811894 C-50.6488195 75.7950605 -50.64663879 71.51225502 -50.66197205 67.2292099 C-50.67585616 63.30221832 -50.67100867 59.37569553 -50.65173281 55.44873081 C-50.64798384 54.03429125 -50.65086274 52.6198138 -50.66134446 51.20540811 C-50.76905574 35.54738991 -46.48745633 24.12215574 -35.83227539 12.63768005 C-25.51941185 2.87729135 -13.85372746 -0.07621713 0 0 Z " fill="#4CAF50" transform="translate(130.144775390625,15.612319946289063)"/>
<path d="M0 0 C9.77025346 6.75739997 15.33499423 15.5167643 20.66015625 25.83984375 C21.84222656 25.68 23.02429688 25.52015625 24.2421875 25.35546875 C39.30272904 23.48821322 53.98389333 24.94950779 66.66015625 33.83984375 C75.74709549 41.20546851 83.51594562 51.52908763 85.4453125 63.34375 C86.84487148 79.60408067 83.92863871 92.23423135 73.8359375 105.1796875 C66.75086035 113.07448775 56.12498968 118.97642825 45.66015625 120.83984375 C45.67125931 121.76834641 45.68236237 122.69684906 45.69380188 123.65348816 C45.79402791 132.40795574 45.87013348 141.16223038 45.91921711 149.91714001 C45.94530016 154.41807232 45.98067401 158.91853019 46.03735352 163.41918945 C46.09172031 167.76344267 46.12158652 172.10723984 46.13454247 176.45180702 C46.14377406 178.10844413 46.16180171 179.76505654 46.18880653 181.42149925 C46.22516123 183.74402976 46.23009926 186.06468145 46.2277832 188.38745117 C46.25474777 189.41244469 46.25474777 189.41244469 46.28225708 190.45814514 C46.24586615 193.83570359 45.65133583 195.85470569 43.92399597 198.7651825 C38.79623993 202.02464304 33.82686777 201.5359371 27.87109375 201.48681641 C26.57141663 201.495578 25.2717395 201.5043396 23.93267822 201.5133667 C20.37466289 201.53612931 16.81737377 201.52733705 13.25934601 201.51147127 C9.53274098 201.49879616 5.80619736 201.51055684 2.07958984 201.5184021 C-4.17817325 201.52749404 -10.43564112 201.51552298 -16.69335938 201.49169922 C-23.92415081 201.46448845 -31.15423732 201.47330297 -38.38501167 201.50083125 C-44.59751474 201.52353456 -50.80980581 201.52671654 -57.02233696 201.5136379 C-60.73093086 201.50584996 -64.4391936 201.50478326 -68.14776611 201.52132034 C-72.2825279 201.53847059 -76.416078 201.51468995 -80.55078125 201.48681641 C-81.77794861 201.49693756 -83.00511597 201.50705872 -84.26947021 201.51748657 C-92.43445725 201.41535311 -92.43445725 201.41535311 -96.60368347 198.7651825 C-98.71544481 195.20697572 -99.01335154 192.41225751 -98.9074707 188.38745117 C-98.90820084 187.65520325 -98.90893097 186.92295532 -98.90968323 186.16851807 C-98.90621333 183.76001629 -98.86738503 181.35347426 -98.828125 178.9453125 C-98.81879464 177.27095089 -98.81167958 175.59657559 -98.8066864 173.92219543 C-98.78763391 169.52420079 -98.73854897 165.12703731 -98.6831665 160.72937012 C-98.6319358 156.23831424 -98.60916425 151.7471235 -98.58398438 147.25585938 C-98.53042781 138.45014024 -98.44513717 129.64509551 -98.33984375 120.83984375 C-99.46483276 120.63862915 -99.46483276 120.63862915 -100.61254883 120.43334961 C-112.83669938 117.7731661 -123.98532548 109.6766751 -130.94921875 99.484375 C-137.81531355 87.75143064 -140.24994047 74.89661804 -137.69140625 61.42578125 C-133.78177772 47.42463292 -126.14837437 37.67927464 -113.65625 30.2421875 C-106.39364943 26.45060151 -99.78528574 24.56320012 -91.52734375 24.65234375 C-90.48610352 24.66201172 -90.48610352 24.66201172 -89.42382812 24.671875 C-84.02372327 24.7520994 -78.69088933 25.11951069 -73.33984375 25.83984375 C-72.87835938 24.94523437 -72.416875 24.050625 -71.94140625 23.12890625 C-64.33104063 8.82697535 -54.61259319 -0.99966636 -38.89453125 -6.328125 C-25.59921386 -9.44010588 -11.67065278 -6.86805322 0 0 Z " fill="#E6E9EE" transform="translate(282.33984375,95.16015625)"/>
<path d="M0 0 C1.2097745 -0.00170885 2.41954899 -0.0034177 3.66598332 -0.00517833 C7.01597906 -0.00790008 10.36574041 -0.00166079 13.71570778 0.00837779 C17.33117792 0.01702308 20.94664096 0.01409137 24.56211853 0.01257324 C30.82353298 0.01152507 37.08490571 0.01779456 43.34630966 0.02904892 C52.39921756 0.04531018 61.45210531 0.05051257 70.50502624 0.0530249 C85.19315107 0.05740102 99.88125368 0.07070787 114.56936646 0.08963013 C128.83661793 0.10799107 143.10386336 0.12214653 157.37112427 0.13064575 C158.6905053 0.13143392 158.6905053 0.13143392 160.03654049 0.13223802 C164.44921767 0.13484811 168.86189489 0.13737552 173.27457213 0.13986182 C209.87610781 0.16059173 246.47761821 0.19581501 283.07913208 0.24050903 C283.15529533 7.53617657 283.20777968 14.83174128 283.243927 22.12771606 C283.2589987 24.60887483 283.27945954 27.09000703 283.30545044 29.57107544 C283.34190375 33.14064093 283.358875 36.70985365 283.37210083 40.27957153 C283.38758469 41.38604034 283.40306854 42.49250916 283.41902161 43.63250732 C283.42042091 50.05879728 283.11155489 54.91589965 278.57913208 59.88504028 C273.56497364 63.78929386 270.45719144 64.36532918 264.18858337 64.36076355 C263.13118195 64.36204519 263.13118195 64.36204519 262.05241889 64.36335272 C259.6847514 64.36500292 257.31715439 64.35949364 254.94949341 64.35403442 C253.25449119 64.35375243 251.55948884 64.35391053 249.86448669 64.35447693 C245.2573626 64.35476442 240.65026443 64.34887551 236.04314637 64.34190297 C231.23049185 64.33566137 226.41783677 64.33506499 221.60517883 64.33387756 C212.48920301 64.33076664 203.37323915 64.32255644 194.25726861 64.31252807 C183.88013087 64.30135955 173.50299257 64.29585462 163.12585032 64.29083264 C141.77693756 64.28037365 120.42803557 64.2627788 99.07913208 64.24050903 C99.08801453 64.98331116 99.09689697 65.72611328 99.10604858 66.49142456 C99.18622952 73.49500809 99.24711394 80.49843238 99.28638077 87.50234604 C99.30724721 91.10309189 99.33554629 94.70345819 99.38088989 98.3039856 C99.42438333 101.77938817 99.44827629 105.25442591 99.45864105 108.73007965 C99.46961823 110.69996687 99.50083908 112.66970751 99.53231812 114.63937378 C99.53262024 115.84031677 99.53292236 117.04125977 99.53323364 118.27859497 C99.54211609 119.33560608 99.55099854 120.39261719 99.56015015 121.48165894 C98.95235205 124.96764825 97.87252106 126.12539196 95.07913208 128.24050903 C91.08269707 128.97318879 88.66503134 129.33278968 85.26565552 126.9914856 C84.66269653 126.43944458 84.05973755 125.88740356 83.43850708 125.31863403 C82.39968384 124.36863525 82.39968384 124.36863525 81.33987427 123.39944458 C77.1861622 119.43278412 73.12002293 115.38424672 69.07913208 111.30300903 C68.20901489 110.42838013 67.33889771 109.55375122 66.44241333 108.65261841 C64.31899659 106.51753454 62.19796831 104.38013698 60.07913208 102.24050903 C56.18869575 103.81846819 53.6021784 106.47605284 50.72756958 109.43191528 C50.22746368 109.93722275 49.72735779 110.44253021 49.21209717 110.96315002 C47.62126265 112.57173988 46.03730124 114.18687723 44.45413208 115.80300903 C42.86295432 117.42181141 41.27033508 119.03912724 39.67474365 120.65357971 C38.6836611 121.65691331 37.695264 122.66290812 36.70983887 123.67179871 C32.76640242 127.67279741 30.81143151 128.35412751 25.14944458 128.66629028 C22.10361081 128.03988296 21.01596717 126.63327509 19.07913208 124.24050903 C18.59811401 121.48165894 18.59811401 121.48165894 18.62503052 118.27859497 C18.62533264 117.07765198 18.62563477 115.87670898 18.62594604 114.63937378 C18.64659119 113.34759216 18.66723633 112.05581055 18.68850708 110.72488403 C18.69597137 109.38539475 18.70166342 108.04589451 18.70565796 106.70639038 C18.72089995 103.18799467 18.7601679 99.67026388 18.80447388 96.15213013 C18.84545844 92.55928542 18.86367568 88.96633283 18.88381958 85.37332153 C18.92666463 78.32877937 18.99489762 71.28468771 19.07913208 64.24050903 C18.09730957 64.26258423 17.11548706 64.28465942 16.10391235 64.30740356 C12.84544885 64.37624996 9.58780519 64.42357323 6.32888794 64.4602356 C4.88670956 64.48019654 3.44461048 64.50737567 2.00271606 64.54226685 C-6.35801942 64.73933097 -13.55785675 64.75144891 -20.92086792 60.24050903 C-22.11776245 59.5714856 -22.11776245 59.5714856 -23.33883667 58.88894653 C-30.46200571 53.76278073 -34.57905297 46.63910902 -36.92086792 38.24050903 C-37.80142069 30.08003747 -37.22303631 23.29016814 -32.92086792 16.24050903 C-32.49676636 15.54183716 -32.07266479 14.84316528 -31.63571167 14.12332153 C-23.79797666 2.55229214 -13.27038179 -0.06839373 0 0 Z " fill="#E6E9EE" transform="translate(132.92086791992188,367.7594909667969)"/>
<path d="M0 0 C1.2671328 -0.00170885 2.5342656 -0.0034177 3.83979636 -0.00517833 C7.32667504 -0.00961567 10.81342908 -0.00169847 14.3002919 0.00837779 C18.07177633 0.01706259 21.84325446 0.01408859 25.61474609 0.01257324 C32.13908219 0.01152756 38.6633781 0.01777097 45.18770409 0.02904892 C54.62063005 0.04534401 64.0535367 0.05051602 73.48647521 0.0530249 C88.79298116 0.05739573 104.09946573 0.07068818 119.40596008 0.08963013 C134.26956577 0.1080048 149.13316563 0.12215353 163.9967804 0.13064575 C165.37243741 0.13143392 165.37243741 0.13143392 166.77588549 0.13223802 C171.37700242 0.1348482 175.97811939 0.13737559 180.57923639 0.13986182 C218.7142823 0.16057524 256.84930435 0.19578406 294.98432922 0.24050903 C295.07736066 9.45536779 295.14826119 18.67006275 295.19157791 27.88529015 C295.21237681 32.1651618 295.24055192 36.44471013 295.28608704 40.72439575 C295.3298219 44.86117314 295.3535241 48.99764121 295.3638382 53.13463211 C295.37118034 54.70617155 295.38551688 56.2776957 295.40724945 57.84910202 C295.55749116 69.1716723 294.78738751 79.03660319 286.68745422 87.70925903 C279.871446 93.83741321 272.7519213 96.49410046 263.5811615 96.48101807 C262.85732973 96.48272692 262.13349797 96.48443577 261.38773191 96.4861964 C258.97402796 96.48947797 256.56060501 96.47850979 254.14692688 96.46755981 C252.41207384 96.46699541 250.67722032 96.46731283 248.94236755 96.46844482 C244.24035149 96.4690182 239.53843766 96.45726625 234.83644533 96.44329691 C229.91971131 96.43078712 225.0029749 96.42961885 220.08622742 96.42724609 C210.77908845 96.42103206 201.47199651 96.40462226 192.16487825 96.38454711 C181.56760755 96.36218574 170.97033459 96.35119408 160.37304616 96.34115624 C138.57678023 96.32025599 116.78055935 96.2846782 94.98432922 96.24050903 C94.98432922 90.96050903 94.98432922 85.68050903 94.98432922 80.24050903 C97.12583466 80.23464279 99.26734009 80.22877655 101.47373962 80.22273254 C121.63306725 80.16609419 141.79228738 80.09302918 161.95150185 80.00479412 C172.31611235 79.95982498 182.68068841 79.92041286 193.04536438 79.89407349 C202.079018 79.8711025 211.11256271 79.8377145 220.14612997 79.79180747 C224.92951982 79.76786316 229.71280173 79.74914229 234.49625015 79.74289513 C238.99917121 79.73684976 243.50181603 79.7168697 248.00463486 79.68623352 C249.6565789 79.67744451 251.30855903 79.6737325 252.96052551 79.67550087 C255.21834154 79.67715457 257.47531643 79.66044719 259.73301697 79.63923645 C260.99587336 79.63462749 262.25872974 79.63001852 263.55985451 79.62526989 C268.60710905 79.05817971 271.85799362 77.45816914 275.29682922 73.74050903 C277.73733508 70.1249448 278.1174522 67.38625369 278.18965149 63.12649536 C278.20959671 62.08564285 278.22954193 61.04479034 278.25009155 59.97239685 C278.26680405 58.85044418 278.28351654 57.72849152 278.30073547 56.57254028 C278.33190712 54.84761604 278.33190712 54.84761604 278.3637085 53.08784485 C278.42916264 49.40962778 278.48806997 45.73133856 278.54682922 42.05300903 C278.59001836 39.56146507 278.63363278 37.06992844 278.6776886 34.57839966 C278.78483984 28.46584602 278.88661406 22.3532204 278.98432922 16.24050903 C241.55621342 16.27650794 204.12818523 16.33344627 166.70014745 16.41842999 C162.28047075 16.42844733 157.86079367 16.43829148 153.44111633 16.44802856 C152.56124577 16.44996994 151.68137521 16.45191131 150.7748419 16.45391151 C136.5319347 16.48492456 122.28904362 16.50191023 108.04610903 16.51370326 C93.42930923 16.52611841 78.81259391 16.55362806 64.19584745 16.5951221 C55.17800421 16.62024706 46.16030111 16.63362704 37.14242237 16.63193861 C30.9567999 16.63190883 24.77132008 16.64655357 18.58575321 16.67267331 C15.0180546 16.68730727 11.4506485 16.6955327 7.88292503 16.68631172 C4.01041497 16.67647259 0.13841677 16.69756656 -3.73403931 16.7215271 C-4.85565348 16.71376668 -5.97726766 16.70600626 -7.13287014 16.69801068 C-17.31853135 16.80953523 -25.59383487 20.17518053 -33.01567078 27.24050903 C-39.44806515 35.40344605 -41.15023956 43.99465825 -40.01567078 54.24050903 C-37.19952235 64.07375457 -32.88469114 70.79758068 -24.17582703 76.16238403 C-19.01599718 78.73763365 -14.38989589 79.51222246 -8.64848328 79.65457153 C-7.96889557 79.67393768 -7.28930786 79.69330383 -6.58912659 79.71325684 C-4.43976499 79.77256002 -2.29034837 79.81923795 -0.14067078 79.86550903 C1.32549712 79.90373436 2.79164366 79.94278868 4.25776672 79.98269653 C7.83317004 80.07976631 11.40837346 80.1597205 14.98432922 80.24050903 C14.98432922 85.52050903 14.98432922 90.80050903 14.98432922 96.24050903 C10.36089159 96.33318373 5.74077412 96.41254962 1.11714172 96.4602356 C-0.45002763 96.48014635 -2.01712475 96.50728539 -3.58403015 96.54226685 C-20.19212949 96.90331248 -32.30099778 93.49260718 -44.76567078 81.92800903 C-54.31104003 71.84233586 -57.53712163 60.54477223 -57.43534851 46.99221802 C-56.99425957 33.3893756 -51.11161585 21.81886001 -41.32817078 12.42800903 C-28.86193266 1.88837135 -15.84504429 -0.07914139 0 0 Z " fill="#1D9E22" transform="translate(137.0156707763672,351.7594909667969)"/>
<path d="M0 0 C26.4 0 52.8 0 80 0 C80.16043524 20.80310244 80.16043524 20.80310244 80.1953125 29.6640625 C80.21923303 35.71270769 80.24754439 41.7611109 80.30175781 47.80957031 C80.34518839 52.68547468 80.3691314 57.5611196 80.37950897 62.43720245 C80.38690535 64.29838394 80.40134866 66.15955108 80.42292023 68.02062225 C80.45191744 70.62571504 80.45595759 73.22973298 80.45410156 75.83496094 C80.46848267 76.60604187 80.48286377 77.3771228 80.49768066 78.17156982 C80.47094007 81.63550531 80.26871447 83.63042961 78.20599365 86.46734619 C75.53918051 88.32016264 73.35794012 88.74891125 70.11816406 88.56933594 C67.54515013 87.87774206 66.32050918 86.87364763 64.359375 85.078125 C63.32055176 84.12812622 63.32055176 84.12812622 62.26074219 83.15893555 C58.10703012 79.19227509 54.04089085 75.14373769 50 71.0625 C49.12988281 70.18787109 48.25976562 69.31324219 47.36328125 68.41210938 C45.23986451 66.27702551 43.11883622 64.13962795 41 62 C37.10956367 63.57795915 34.52304632 66.23554381 31.6484375 69.19140625 C31.1483316 69.69671371 30.64822571 70.20202118 30.13296509 70.72264099 C28.54213057 72.33123084 26.95816916 73.94636819 25.375 75.5625 C23.78382224 77.18130238 22.19120299 78.79861821 20.59561157 80.41307068 C19.60452902 81.41640427 18.61613192 82.42239908 17.63070679 83.43128967 C13.68727034 87.43228838 11.73229943 88.11361847 6.0703125 88.42578125 C2.94267221 87.78254957 1.93285421 86.52799912 0 84 C-0.37407324 81.145965 -0.50724398 78.68433237 -0.45410156 75.83496094 C-0.45468567 75.0150769 -0.45526978 74.19519287 -0.45587158 73.35046387 C-0.4530883 70.64466789 -0.42198549 67.93997815 -0.390625 65.234375 C-0.38316346 63.3567973 -0.37747012 61.47921181 -0.37347412 59.60162354 C-0.35821091 54.66290742 -0.31892313 49.7246628 -0.2746582 44.78613281 C-0.22652113 38.85907739 -0.20817476 32.9318642 -0.18484497 27.00466919 C-0.14607256 18.00278499 -0.06942366 9.00193509 0 0 Z " fill="#FCB760" transform="translate(152,408)"/>
<path d="M0 0 C47.52 0 95.04 0 144 0 C144 8.91 144 17.82 144 27 C138.37478579 32.62521421 138.37478579 32.62521421 133.34521484 32.63491821 C132.21807068 32.64901733 131.09092651 32.66311646 129.92962646 32.67764282 C128.70245911 32.66752167 127.47529175 32.65740051 126.2109375 32.64697266 C124.91126038 32.65573425 123.61158325 32.66449585 122.27252197 32.67352295 C118.71450664 32.69628556 115.15721752 32.6874933 111.59918976 32.67162752 C107.87258473 32.65895241 104.14604111 32.67071309 100.41943359 32.67855835 C94.1616705 32.68765029 87.90420263 32.67567923 81.64648438 32.65185547 C74.41569294 32.6246447 67.18560643 32.63345922 59.95483208 32.6609875 C53.74232901 32.68369081 47.53003794 32.68687279 41.31750679 32.67379415 C37.60891289 32.66600621 33.90065015 32.66493951 30.19207764 32.68147659 C26.05731585 32.69862684 21.92376575 32.6748462 17.7890625 32.64697266 C16.56189514 32.65709381 15.33472778 32.66721497 14.07037354 32.67764282 C12.94322937 32.6635437 11.81608521 32.64944458 10.65478516 32.63491821 C9.18919662 32.63209052 9.18919662 32.63209052 7.69400024 32.6292057 C5 32 5 32 0 27 C0 18.09 0 9.18 0 0 Z " fill="#D7DADF" transform="translate(184,264)"/>
<path d="M0 0 C1.55694989 -0.01169993 1.55694989 -0.01169993 3.14535332 -0.02363622 C6.6286744 -0.04360392 10.11090879 -0.02777202 13.59423828 -0.01205444 C16.08930093 -0.01882839 18.58435859 -0.02773025 21.07940674 -0.03860474 C27.15590454 -0.05905942 33.23197475 -0.0560352 39.30845594 -0.04154153 C44.24682112 -0.03025009 49.18509974 -0.02871795 54.12347412 -0.03416061 C55.17770516 -0.03530986 55.17770516 -0.03530986 56.25323379 -0.03648233 C57.68099549 -0.03808095 59.10875716 -0.03970202 60.53651881 -0.04134528 C73.92505301 -0.05560344 87.31341605 -0.0392091 100.70192218 -0.01234345 C112.19020181 0.00999546 123.67822883 0.00611535 135.16650391 -0.01693726 C148.50707471 -0.04369417 161.84749548 -0.05423014 175.18808937 -0.03887594 C176.61060204 -0.03728319 178.03311473 -0.03571134 179.45562744 -0.03416061 C180.5054857 -0.03300355 180.5054857 -0.03300355 181.57655323 -0.03182311 C186.50905958 -0.02750576 191.44147078 -0.03479336 196.3739624 -0.04655838 C203.01262061 -0.06204487 209.65087512 -0.05102111 216.28951263 -0.0220871 C218.72882035 -0.01546452 221.16816815 -0.01739378 223.60746002 -0.02840042 C226.93188721 -0.04202022 230.25477317 -0.02498116 233.57910156 0 C234.54942762 -0.01115361 235.51975368 -0.02230722 236.51948357 -0.03379881 C241.1023908 0.03321743 243.1412039 0.14282865 246.88864136 2.9871006 C248.78955078 5.63491821 248.78955078 5.63491821 249.41455078 8.63491821 C248.54534364 12.80711247 247.18430181 14.05833215 243.78955078 16.63491821 C240.3882994 17.37317091 237.04858246 17.30971707 233.57910156 17.26983643 C232.54113497 17.27763638 231.50316837 17.28543633 230.43374825 17.29347265 C226.95042716 17.31344034 223.46819277 17.29760844 219.98486328 17.28189087 C217.48980063 17.28866481 214.99474297 17.29756668 212.49969482 17.30844116 C206.42319702 17.32889585 200.34712681 17.32587163 194.27064562 17.31137796 C189.33228045 17.30008652 184.39400182 17.29855437 179.45562744 17.30399704 C178.40139641 17.30514629 178.40139641 17.30514629 177.32586777 17.30631875 C175.89810607 17.30791738 174.4703444 17.30953844 173.04258275 17.31118171 C159.65404855 17.32543987 146.26568551 17.30904552 132.87717938 17.28217988 C121.38889975 17.25984097 109.90087273 17.26372108 98.41259766 17.28677368 C85.07202685 17.3135306 71.73160608 17.32406656 58.39101219 17.30871236 C56.96849952 17.30711962 55.54598683 17.30554776 54.12347412 17.30399704 C53.42356861 17.30322566 52.7236631 17.30245428 52.00254834 17.30165953 C47.07004198 17.29734218 42.13763078 17.30462979 37.20513916 17.31639481 C30.56648096 17.3318813 23.92822644 17.32085753 17.28958893 17.29192352 C14.85028121 17.28530095 12.41093341 17.28723021 9.97164154 17.29823685 C6.64721435 17.31185664 3.32432839 17.29481758 0 17.26983643 C-0.97032606 17.28099003 -1.94065212 17.29214364 -2.940382 17.30363524 C-7.52328924 17.23661899 -9.56210234 17.12700777 -13.30953979 14.28273582 C-15.21044922 11.63491821 -15.21044922 11.63491821 -15.83544922 8.63491821 C-14.02615799 -0.04967969 -7.39140494 -0.08496199 0 0 Z " fill="#D8DBE0" transform="translate(143.21044921875,391.3650817871094)"/>
</svg>
