<?xml version="1.0" encoding="UTF-8"?>
<svg version="1.1" xmlns="http://www.w3.org/2000/svg" width="512" height="512">
<path d="M0 0 C1.51774716 -0.00418201 3.03549118 -0.00966424 4.55322951 -0.01631981 C8.68881069 -0.03067967 12.82419098 -0.02655957 16.95978272 -0.019153 C21.43367667 -0.01439999 25.90752849 -0.02694999 30.38140869 -0.03717041 C39.13275477 -0.05432247 47.88402894 -0.05520585 56.63538746 -0.04995751 C63.75260586 -0.04590765 70.86980309 -0.04736904 77.98702049 -0.05270576 C79.00197249 -0.05345419 80.01692449 -0.05420261 81.06263262 -0.05497371 C83.12485698 -0.05650527 85.18708134 -0.05804362 87.24930569 -0.05958868 C106.56688979 -0.07330087 125.88443333 -0.06788517 145.2020165 -0.05640347 C162.85050508 -0.04647378 180.49888879 -0.05940948 198.1473612 -0.08333766 C216.29586007 -0.10775721 234.44431015 -0.11732943 252.59282511 -0.11068493 C262.77098846 -0.10719889 272.94907119 -0.10938404 283.12722206 -0.12693596 C291.79212366 -0.14169374 300.45688787 -0.14224684 309.12178687 -0.12486505 C313.53700137 -0.11638181 317.95197084 -0.11413952 322.36717224 -0.1295166 C326.41945967 -0.14345424 330.47129424 -0.13848556 334.52355608 -0.11927737 C335.97902673 -0.11554461 337.43453447 -0.11835942 338.88997183 -0.12888902 C352.03093974 -0.21709822 365.19117489 1.80551189 376.88615417 8.13768005 C377.54510681 8.48274597 378.20405945 8.82781189 378.88298035 9.18333435 C399.04360049 20.0069214 414.63686273 37.39301443 421.57365417 59.38768005 C424.31356033 68.92969348 425.00618639 77.92925564 424.96133423 87.81402588 C424.96551624 89.33177304 424.97099847 90.84951706 424.97765404 92.36725539 C424.9920139 96.50283657 424.9878938 100.63821686 424.98048723 104.7738086 C424.97573421 109.24770255 424.98828422 113.72155437 424.99850464 118.19543457 C425.01565669 126.94678065 425.01654008 135.69805482 425.01129173 144.44941334 C425.00724188 151.56663174 425.00870327 158.68382897 425.01403999 165.80104637 C425.01478842 166.81599837 425.01553684 167.83095037 425.01630794 168.8766585 C425.0178395 170.93888286 425.01937785 173.00110721 425.02092291 175.06333157 C425.0346351 194.38091567 425.0292194 213.69845921 425.01773769 233.01604237 C425.00780801 250.66453096 425.02074371 268.31291466 425.04467189 285.96138708 C425.06909144 304.10988595 425.07866366 322.25833603 425.07201916 340.40685099 C425.06853311 350.58501434 425.07071827 360.76309707 425.08827019 370.94124794 C425.10302797 379.60614953 425.10358107 388.27091375 425.08619928 396.93581275 C425.07771604 401.35102725 425.07547375 405.76599671 425.09085083 410.18119812 C425.10478847 414.23348555 425.09981979 418.28532012 425.08061159 422.33758195 C425.07687884 423.79305261 425.07969365 425.24856035 425.09022325 426.70399771 C425.17843245 439.84496562 423.15582234 453.00520077 416.82365417 464.70018005 C416.47858826 465.35913269 416.13352234 466.01808533 415.77799988 466.69700623 C404.95441283 486.85762637 387.5683198 502.45088861 365.57365417 509.38768005 C356.03164075 512.12758621 347.03207859 512.82021227 337.14730835 512.77536011 C335.62956119 512.77954211 334.11181717 512.78502435 332.59407884 512.79167992 C328.45849766 512.80603978 324.32311737 512.80191968 320.18752563 512.79451311 C315.71363168 512.78976009 311.23977986 512.8023101 306.76589966 512.81253052 C298.01455358 512.82968257 289.26327941 512.83056596 280.51192089 512.82531761 C273.39470249 512.82126776 266.27750526 512.82272915 259.16028786 512.82806587 C257.63785986 512.82918851 257.63785986 512.82918851 256.08467573 512.83033382 C254.02245137 512.83186538 251.96022701 512.83340373 249.89800266 512.83494879 C230.58041856 512.84866098 211.26287502 512.84324528 191.94529185 512.83176357 C174.29680327 512.82183389 156.64841956 512.83476959 138.99994715 512.85869776 C120.85144828 512.88311731 102.7029982 512.89268953 84.55448323 512.88604504 C74.37631989 512.88255899 64.19823716 512.88474415 54.02008629 512.90229607 C45.35518469 512.91705385 36.69042048 512.91760695 28.02552148 512.90022516 C23.61030698 512.89174192 19.19533751 512.88949963 14.78013611 512.90487671 C10.72784867 512.91881435 6.67601411 512.91384567 2.62375227 512.89463747 C1.16828162 512.89090472 -0.28722612 512.89371953 -1.74266348 512.90424912 C-14.88363139 512.99245833 -28.04386654 510.96984822 -39.73884583 504.63768005 C-40.39779846 504.29261414 -41.0567511 503.94754822 -41.735672 503.59202576 C-61.89629214 492.76843871 -77.48955438 475.38234568 -84.42634583 453.38768005 C-87.16625198 443.84566663 -87.85887805 434.84610447 -87.81402588 424.96133423 C-87.81820789 423.44358707 -87.82369012 421.92584304 -87.83034569 420.40810472 C-87.84470555 416.27252354 -87.84058545 412.13714324 -87.83317888 408.00155151 C-87.82842587 403.52765755 -87.84097587 399.05380574 -87.85119629 394.57992554 C-87.86834834 385.82857946 -87.86923173 377.07730529 -87.86398339 368.32594677 C-87.85993353 361.20872837 -87.86139492 354.09153114 -87.86673164 346.97431374 C-87.86748007 345.95936174 -87.86822849 344.94440973 -87.86899959 343.89870161 C-87.87053115 341.83647725 -87.8720695 339.77425289 -87.87361456 337.71202854 C-87.88732675 318.39444444 -87.88191105 299.0769009 -87.87042934 279.75931773 C-87.86049966 262.11082915 -87.87343536 244.46244544 -87.89736354 226.81397303 C-87.92178309 208.66547416 -87.93135531 190.51702408 -87.92471081 172.36850911 C-87.92122476 162.19034577 -87.92340992 152.01226304 -87.94096184 141.83411217 C-87.95571962 133.16921057 -87.95627272 124.50444636 -87.93889093 115.83954736 C-87.93040769 111.42433285 -87.9281654 107.00936339 -87.94354248 102.59416199 C-87.95748012 98.54187455 -87.95251144 94.49003999 -87.93330324 90.43777815 C-87.92957049 88.98230749 -87.9323853 87.52679975 -87.9429149 86.0713624 C-88.0311241 72.93039449 -86.00851399 59.77015934 -79.67634583 48.07518005 C-79.33127991 47.41622742 -78.98621399 46.75727478 -78.63069153 46.07835388 C-67.80710448 25.91773373 -50.42101145 10.3244715 -28.42634583 3.38768005 C-18.8843324 0.64777389 -9.88477024 -0.04485217 0 0 Z " fill="#000000" transform="translate(87.42634582519531,-0.3876800537109375)"/>
<path d="M0 0 C1.02931641 -0.02449219 2.05863281 -0.04898438 3.11914062 -0.07421875 C13.57210561 -0.11388845 22.57901814 3.0446777 30.1875 10.375 C40.5045251 22.35304274 39.62732501 36.72246806 39.59155273 51.61279297 C39.59726186 53.76078648 39.60422821 55.90877696 39.61235046 58.0567627 C39.63023734 63.86676029 39.62912182 69.67660647 39.62340808 75.48662329 C39.62030963 80.3472629 39.62641601 85.20787371 39.63244683 90.06850922 C39.6464759 101.54065179 39.64494433 113.01271987 39.63354492 124.48486328 C39.62206638 136.29725405 39.6361388 148.10941771 39.6629414 159.92177856 C39.68513414 170.08519295 39.69172768 180.24853623 39.68586498 190.41197312 C39.68250265 196.4725788 39.68486237 202.53303894 39.70211601 208.59362411 C39.7176399 214.29503537 39.71356914 219.99611149 39.69481087 225.69750977 C39.69114 227.7819322 39.69418927 229.86637977 39.70469666 231.95077896 C39.77730885 247.5544383 39.09461054 260.82026383 28.0625 272.9375 C19.3131741 281.46006151 9.49696414 282.69464585 -2.10302734 282.68530273 C-13.35282048 282.49953192 -20.50367337 279.63768129 -28.65234375 271.734375 C-36.25131903 263.43459006 -39.28421834 254.16506609 -39.19345093 243.02140808 C-39.1981309 242.12380353 -39.20281087 241.22619897 -39.20763266 240.30139428 C-39.2195245 237.31690529 -39.21014812 234.33288044 -39.20068359 231.34838867 C-39.20475196 229.19906854 -39.21009532 227.0497505 -39.21661377 224.9004364 C-39.23026402 219.07798288 -39.22499744 213.25568926 -39.21547651 207.43323302 C-39.20786515 201.3289636 -39.2149299 195.2247076 -39.21963501 189.12043762 C-39.22508949 178.86729483 -39.21791027 168.61421692 -39.20361328 158.36108398 C-39.18730047 146.52602625 -39.19256663 134.69112369 -39.2090925 122.85606974 C-39.22273169 112.67912606 -39.22461474 102.50222894 -39.21677649 92.32527906 C-39.21211167 86.25408565 -39.21144203 80.18296502 -39.22138596 74.11177635 C-39.23008827 68.39976729 -39.22397414 62.68795703 -39.20670319 56.97596931 C-39.20275519 54.88629358 -39.20384327 52.79660096 -39.21049118 50.70693207 C-39.29395984 21.79106074 -39.29395984 21.79106074 -29.8125 10.375 C-20.46238099 1.96976481 -12.29357447 0.01522424 0 0 Z " fill="#FDFDFD" transform="translate(365.8125,118.625)"/>
<path d="M0 0 C8.22597962 6.05936849 14.36273804 13.02514974 17 23 C17.31093882 27.04854885 17.30404458 31.08991003 17.30639648 35.14892578 C17.31472 36.36922989 17.32304352 37.589534 17.33161926 38.84681702 C17.35155139 42.18400822 17.36235407 45.52095023 17.36744571 48.85817957 C17.37109933 50.94850262 17.37734472 53.03880206 17.3844471 55.12911606 C17.40892201 62.43732497 17.42198814 69.74546316 17.42553711 77.05371094 C17.42916546 83.83956773 17.45901502 90.62497033 17.50094169 97.41068852 C17.53577914 103.25639943 17.5510879 109.10196089 17.55178314 114.94777477 C17.55257175 118.43028973 17.56111486 121.91234205 17.58978081 125.39474869 C17.62111483 129.28824179 17.61183776 133.18109702 17.59936523 137.07470703 C17.61419952 138.20968124 17.62903381 139.34465546 17.64431763 140.51402283 C17.54297323 151.68704673 13.96484591 160.99664324 6.17578125 169.09375 C-4.19479477 178.17964066 -16.44346838 178.9320226 -29.62109375 178.23388672 C-38.94133668 177.31754921 -47.09583892 172.11766454 -53 165 C-57.43114162 157.80173197 -60.11211099 151.27326407 -60.14044189 142.78973389 C-60.14615204 141.76092606 -60.15186218 140.73211823 -60.15774536 139.6721344 C-60.15886322 138.55410934 -60.15998108 137.43608429 -60.16113281 136.28417969 C-60.16609772 135.09821701 -60.17106262 133.91225433 -60.17617798 132.69035339 C-60.1882617 129.44427509 -60.19573832 126.19823275 -60.20018864 122.95213604 C-60.20312678 120.92064579 -60.20723298 118.88916109 -60.21169281 116.85767365 C-60.22535655 110.49155383 -60.23502848 104.1254468 -60.2388947 97.75931334 C-60.24337171 90.42928658 -60.26090757 83.09944664 -60.2898953 75.76947665 C-60.31156594 70.0911467 -60.32160186 64.4128691 -60.32293582 58.73449826 C-60.32398008 55.34887318 -60.32980639 51.96342398 -60.34775543 48.57784271 C-60.36485451 44.79621825 -60.36292585 41.01504612 -60.35644531 37.23339844 C-60.3656601 36.12347031 -60.37487488 35.01354218 -60.3843689 33.86997986 C-60.32595979 22.96157717 -57.45813723 14.01935699 -50.0625 5.86328125 C-37.95164132 -5.8366733 -14.77135931 -9.13717583 0 0 Z " fill="#FEFEFE" transform="translate(281,223)"/>
<path d="M0 0 C1.16148056 -0.01268417 2.32296112 -0.02536835 3.51963806 -0.03843689 C4.76556229 -0.03550125 6.01148651 -0.03256561 7.29516602 -0.02954102 C8.58342789 -0.03478287 9.87168976 -0.04002472 11.19898987 -0.04542542 C13.92165951 -0.0543424 16.64403561 -0.05195007 19.36669922 -0.04199219 C22.84481946 -0.03050687 26.32192373 -0.05071252 29.79991055 -0.07990932 C33.13171518 -0.10273635 36.46328516 -0.09580194 39.79516602 -0.09204102 C41.03906601 -0.10327499 42.282966 -0.11450897 43.56455994 -0.12608337 C54.52618461 -0.03778905 54.52618461 -0.03778905 59.11157227 4.40405273 C61.83550046 8.20472902 62.49179615 10.82558411 62.515625 15.47607422 C62.53465126 17.27835732 62.53465126 17.27835732 62.55406189 19.11705017 C62.55112625 20.40672195 62.54819061 21.69639374 62.54516602 23.02514648 C62.54973117 24.37126427 62.55503774 25.71737972 62.56105042 27.06349182 C62.56996876 29.88031501 62.56757345 32.6968545 62.55761719 35.51367188 C62.54613154 39.11284753 62.56633758 42.71104144 62.59553432 46.31008816 C62.61393403 49.08891458 62.61359645 51.86750738 62.6078968 54.64637947 C62.60767007 56.61498815 62.62453406 58.58357499 62.64170837 60.55210876 C62.55544155 71.6302418 62.55544155 71.6302418 58.11157227 76.40405273 C54.16528652 79.87200081 50.52177426 80.82561188 45.24047852 80.74780273 C41.4704321 80.1390613 38.6672207 78.18615103 36.11157227 75.40405273 C33.10819542 70.58731628 32.59857407 66.54330966 32.42407227 61.02905273 C32.38991211 60.29299805 32.35575195 59.55694336 32.32055664 58.79858398 C32.23884438 57.0009142 32.17351446 55.20251227 32.11157227 53.40405273 C29.08646268 56.39976597 26.06729352 59.40140079 23.04907227 62.40405273 C22.20151367 63.24323242 21.35395508 64.08241211 20.48071289 64.94702148 C16.09485125 69.31594929 11.88318496 73.74651089 7.85205078 78.44311523 C3.93458983 82.85678424 -0.36358844 86.91543596 -4.57202148 91.04858398 C-8.65750911 95.08974444 -12.5372882 99.22207112 -16.28491211 103.57788086 C-19.35231429 107.07120734 -22.71979028 110.25114793 -26.04467773 113.49780273 C-28.19139165 115.6384557 -30.18265188 117.87414733 -32.15795898 120.17358398 C-36.23427879 124.88164994 -40.63807873 129.22687519 -45.07592773 133.59155273 C-50.8808373 139.22769223 -50.8808373 139.22769223 -56.19702148 145.31030273 C-59.45390203 149.34191468 -63.9212289 151.08287741 -68.95092773 151.90405273 C-73.56921575 151.11796116 -77.13257742 149.3916135 -80.22045898 145.89624023 C-83.25687466 141.2826051 -83.9325994 136.79171855 -82.88842773 131.40405273 C-79.00515954 123.42758404 -72.23219337 117.42460537 -65.95092773 111.34155273 C-60.31315264 105.84098637 -54.73910358 100.3586262 -49.62060547 94.36328125 C-45.51336523 89.71767125 -40.97975329 85.46028894 -36.56030273 81.11499023 C-32.41191503 77.00893302 -28.46542797 72.82595105 -24.66186523 68.40014648 C-20.73128709 63.97608165 -16.42505673 59.9042483 -12.20483398 55.75952148 C-8.12026452 51.71926923 -4.23822524 47.58909417 -0.49145508 43.23413086 C1.75137454 40.67362967 4.12548634 38.29443886 6.54907227 35.90405273 C7.4140332 35.04811523 8.27899414 34.19217773 9.17016602 33.31030273 C9.81083008 32.68124023 10.45149414 32.05217773 11.11157227 31.40405273 C9.73485352 31.36538086 9.73485352 31.36538086 8.33032227 31.32592773 C-6.96493583 30.61900404 -6.96493583 30.61900404 -12.25561523 24.93530273 C-15.50157341 20.18948802 -15.79889383 14.97720886 -14.88842773 9.40405273 C-11.61611517 2.73823085 -7.35837867 0.03901865 0 0 Z " fill="#FCFCFC" transform="translate(206.888427734375,118.595947265625)"/>
<path d="M0 0 C8.2925857 5.75975482 13.96092417 13.24215747 16.5534668 23.10571289 C17.17150215 27.11162276 17.18263557 31.05737377 17.203125 35.10546875 C17.20882507 35.98471512 17.21452515 36.86396149 17.22039795 37.76985168 C17.2298242 39.62821255 17.23637247 41.48658995 17.24023438 43.3449707 C17.24990766 46.16062322 17.28094019 48.97553516 17.3125 51.79101562 C17.40088691 66.37712592 16.14462606 76.7399962 6 88 C-2.10896827 95.06126086 -11.28806425 97.56924944 -21.875 97.4375 C-22.75269043 97.42775146 -23.63038086 97.41800293 -24.53466797 97.40795898 C-35.63919845 97.10469695 -42.80282125 94.15439524 -50.83984375 86.359375 C-58.53762507 77.95167172 -61.47309858 68.59375639 -61.43359375 57.3203125 C-61.4388356 56.42690155 -61.44407745 55.5334906 -61.44947815 54.61300659 C-61.45585962 52.73566724 -61.45461204 50.85828769 -61.44604492 48.98095703 C-61.43754162 46.13890957 -61.46633968 43.29888062 -61.49804688 40.45703125 C-61.55496514 25.86554152 -59.59045315 15.3027269 -49.4453125 4.31640625 C-37.9335854 -6.72714056 -13.49329406 -8.39633307 0 0 Z " fill="#FCFCFC" transform="translate(175,304)"/>
</svg>
